<?xml version="1.0" standalone="no"?>
<!DOCTYPE svg PUBLIC "-//W3C//DTD SVG 20010904//EN"
 "http://www.w3.org/TR/2001/REC-SVG-20010904/DTD/svg10.dtd">
<svg version="1.0" xmlns="http://www.w3.org/2000/svg"
 width="700.000000pt" height="700.000000pt" viewBox="0 0 700.000000 700.000000"
 preserveAspectRatio="xMidYMid meet">
<metadata>
Created by potrace 1.14, written by Peter Selinger 2001-2017
</metadata>
<g transform="translate(0.000000,700.000000) scale(0.100000,-0.100000)"
fill="#000000" stroke="none">
<path d="M603 6379 l-32 -20 5 -167 c3 -91 8 -170 10 -174 3 -5 24 -18 46 -29
51 -26 179 -149 218 -209 60 -93 101 -195 121 -295 7 -32 12 -719 14 -1875 2
-1004 7 -1852 10 -1885 13 -132 18 -163 42 -228 101 -282 375 -547 664 -640
184 -60 316 -74 769 -82 305 -6 348 -8 458 -31 90 -17 115 -26 199 -67 99 -48
158 -109 268 -276 55 -83 102 -151 105 -150 3 0 46 61 95 137 50 75 107 156
128 179 72 79 202 148 319 172 139 28 187 31 478 36 524 8 683 30 884 124 299
139 556 454 590 721 15 114 17 295 21 2000 4 1989 0 1884 62 2024 65 149 149
250 276 333 l67 44 1 82 c1 45 3 121 4 169 l4 87 -35 20 -35 21 -2862 0 -2862
0 -32 -21z"/>
</g>
</svg>
