<svg clip-rule="evenodd" fill-rule="evenodd" stroke-miterlimit="2" viewBox="0 0 1080 1080" xmlns="http://www.w3.org/2000/svg"><path d="m0 0h1080v1080h-1080z" fill="none"/><path d="m254.705 121.068.875.5c-11.11 5.493-17.977 16.978-18.852 28.839l-.25 133.959-.621 6.492c-2.625 10.113-12.484 19.352-22.473 21.974-20.601 5.742-48.817-4.996-62.674 15.854-13.857-20.85-42.073-10.112-62.675-15.854-9.988-2.622-19.847-11.861-22.472-21.974l-.622-6.492-.25-133.959c-.875-11.861-7.742-23.346-18.851-28.839l.875-.5z" fill="#b78901" stroke="#fff" stroke-width="14.4" transform="matrix(4.16667 0 0 4.16667 -87.9583 -381.76)"/></svg>